<?xml version="1.0" encoding="UTF-8"?>
<!DOCTYPE svg PUBLIC "-//W3C//DTD SVG 1.1//EN" "http://www.w3.org/Graphics/SVG/1.1/DTD/svg11.dtd">
<svg xmlns="http://www.w3.org/2000/svg" version="1.1" width="50px" height="50px" style="shape-rendering:geometricPrecision; text-rendering:geometricPrecision; image-rendering:optimizeQuality; fill-rule:evenodd; clip-rule:evenodd" xmlns:xlink="http://www.w3.org/1999/xlink">
<g><path style="opacity:0.615" fill="#000000" d="M 17.5,1.5 C 41.1541,0.318958 50.6541,11.319 46,34.5C 38.7573,46.8068 28.2573,50.6402 14.5,46C 2.19317,38.7573 -1.64016,28.2573 3,14.5C 6.16246,8.16411 10.9958,3.83077 17.5,1.5 Z M 18.5,4.5 C 36.9488,3.44852 45.4488,12.1152 44,30.5C 38.1981,42.9824 28.6981,47.1491 15.5,43C 4.9871,36.4639 1.82043,27.2972 6,15.5C 9.1476,10.5094 13.3143,6.84275 18.5,4.5 Z M 11.5,23.5 C 13.337,23.6395 13.6704,24.3061 12.5,25.5C 11.7025,25.0431 11.3691,24.3764 11.5,23.5 Z M 23.5,23.5 C 25.337,23.6395 25.6704,24.3061 24.5,25.5C 23.7025,25.0431 23.3691,24.3764 23.5,23.5 Z M 35.5,23.5 C 37.337,23.6395 37.6704,24.3061 36.5,25.5C 35.7025,25.0431 35.3691,24.3764 35.5,23.5 Z"/></g>
<g><path style="opacity:0.667" fill="#000000" d="M 9.5,20.5 C 16.1584,19.3445 18.1584,21.8445 15.5,28C 8.74962,29.4689 6.74962,26.9689 9.5,20.5 Z M 11.5,23.5 C 11.3691,24.3764 11.7025,25.0431 12.5,25.5C 13.6704,24.3061 13.337,23.6395 11.5,23.5 Z"/></g>
<g><path style="opacity:0.667" fill="#000000" d="M 21.5,20.5 C 28.1584,19.3445 30.1584,21.8445 27.5,28C 20.7496,29.4689 18.7496,26.9689 21.5,20.5 Z M 23.5,23.5 C 23.3691,24.3764 23.7025,25.0431 24.5,25.5C 25.6704,24.3061 25.337,23.6395 23.5,23.5 Z"/></g>
<g><path style="opacity:0.667" fill="#000000" d="M 33.5,20.5 C 40.1584,19.3445 42.1584,21.8445 39.5,28C 32.7496,29.4689 30.7496,26.9689 33.5,20.5 Z M 35.5,23.5 C 35.3691,24.3764 35.7025,25.0431 36.5,25.5C 37.6704,24.3061 37.337,23.6395 35.5,23.5 Z"/></g>
</svg>
